<svg width="256" height="256" viewBox="0 0 256 256" fill="none" xmlns="http://www.w3.org/2000/svg">
<g clip-path="url(#clip0_1306_12)">
<rect width="256.466" height="256.466" rx="50" fill="black"/>
<path d="M58.4637 127.026C49.371 111.277 54.767 91.1387 70.5159 82.0461V82.0461L122.475 172.041C131.567 187.79 126.171 207.928 110.422 217.021V217.021L58.4637 127.026Z" fill="#59C184"/>
<path d="M79.1494 77.0625V77.0625C95.0428 67.8864 115.366 73.3319 124.542 89.2253L152.938 138.409V138.409C137.044 147.585 116.722 142.139 107.545 126.246L79.1494 77.0625Z" fill="white"/>
<path d="M133.024 83.9788C123.931 68.2299 129.327 48.0919 145.076 38.9992V38.9992L182.534 103.879C191.627 119.628 186.231 139.766 170.482 148.859V148.859L133.024 83.9788Z" fill="#59C184"/>
</g>
<defs>
<clipPath id="clip0_1306_12">
<rect width="256" height="256" fill="white"/>
</clipPath>
</defs>
</svg>
